<svg width="476" height="35" viewBox="0 0 476 35" fill="none" xmlns="http://www.w3.org/2000/svg">
<path d="M8.16903 28L0.677557 1.81818H6.72443L11.0582 20.0099H11.2756L16.0568 1.81818H21.2344L26.0028 20.0483H26.233L30.5668 1.81818H36.6136L29.1222 28H23.7273L18.7415 10.8821H18.5369L13.5639 28H8.16903ZM46.3136 28.3835C44.2937 28.3835 42.555 27.9744 41.0977 27.1562C39.6488 26.3295 38.5323 25.1619 37.7482 23.6534C36.9641 22.1364 36.5721 20.3423 36.5721 18.2713C36.5721 16.2514 36.9641 14.4787 37.7482 12.9531C38.5323 11.4276 39.636 10.2386 41.0593 9.38636C42.4911 8.53409 44.1701 8.10795 46.0962 8.10795C47.3917 8.10795 48.5977 8.31676 49.7141 8.73438C50.8391 9.14347 51.8192 9.76136 52.6545 10.5881C53.4982 11.4148 54.1545 12.4545 54.6232 13.7074C55.092 14.9517 55.3264 16.4091 55.3264 18.0795V19.5753H38.7454V16.2003H50.1999C50.1999 15.4162 50.0295 14.7216 49.6886 14.1165C49.3477 13.5114 48.8746 13.0384 48.2695 12.6974C47.6729 12.348 46.9783 12.1733 46.1857 12.1733C45.359 12.1733 44.6261 12.3651 43.9869 12.7486C43.3562 13.1236 42.8619 13.6307 42.5039 14.2699C42.146 14.9006 41.9627 15.6037 41.9542 16.3793V19.5881C41.9542 20.5597 42.1332 21.3991 42.4911 22.1065C42.8576 22.8139 43.3732 23.3594 44.038 23.7429C44.7028 24.1264 45.4911 24.3182 46.4031 24.3182C47.0082 24.3182 47.5621 24.233 48.065 24.0625C48.5678 23.892 48.9982 23.6364 49.3562 23.2955C49.7141 22.9545 49.9869 22.5369 50.1744 22.0426L55.2113 22.375C54.9556 23.5852 54.4315 24.642 53.6389 25.5455C52.8548 26.4403 51.8406 27.1392 50.5962 27.642C49.3604 28.1364 47.9329 28.3835 46.3136 28.3835ZM64.3263 1.81818V28H58.8803V1.81818H64.3263ZM77.5611 28.3835C75.5497 28.3835 73.8196 27.9574 72.3707 27.1051C70.9304 26.2443 69.8224 25.0511 69.0469 23.5256C68.2798 22 67.8963 20.2443 67.8963 18.2585C67.8963 16.2472 68.2841 14.483 69.0597 12.9659C69.8438 11.4403 70.956 10.2514 72.3963 9.39915C73.8366 8.53835 75.5497 8.10795 77.5355 8.10795C79.2486 8.10795 80.7486 8.41903 82.0355 9.04119C83.3224 9.66335 84.3409 10.5369 85.0909 11.6619C85.8409 12.7869 86.2543 14.108 86.331 15.625H81.1918C81.0469 14.6449 80.6634 13.8565 80.0412 13.2599C79.4276 12.6548 78.6222 12.3523 77.625 12.3523C76.7812 12.3523 76.044 12.5824 75.4134 13.0426C74.7912 13.4943 74.3054 14.1548 73.956 15.0241C73.6065 15.8935 73.4318 16.946 73.4318 18.1818C73.4318 19.4347 73.6023 20.5 73.9432 21.3778C74.2926 22.2557 74.7827 22.9247 75.4134 23.3849C76.044 23.8452 76.7812 24.0753 77.625 24.0753C78.2472 24.0753 78.8054 23.9474 79.2997 23.6918C79.8026 23.4361 80.2159 23.0653 80.5398 22.5795C80.8722 22.0852 81.0895 21.4929 81.1918 20.8026H86.331C86.2457 22.3026 85.8366 23.6236 85.1037 24.7656C84.3793 25.8991 83.3778 26.7855 82.0994 27.4247C80.821 28.0639 79.3082 28.3835 77.5611 28.3835ZM98.69 28.3835C96.7042 28.3835 94.9869 27.9616 93.538 27.1179C92.0977 26.2656 90.9854 25.081 90.2013 23.5639C89.4173 22.0384 89.0252 20.2699 89.0252 18.2585C89.0252 16.2301 89.4173 14.4574 90.2013 12.9403C90.9854 11.4148 92.0977 10.2301 93.538 9.38636C94.9869 8.53409 96.7042 8.10795 98.69 8.10795C100.676 8.10795 102.389 8.53409 103.829 9.38636C105.278 10.2301 106.395 11.4148 107.179 12.9403C107.963 14.4574 108.355 16.2301 108.355 18.2585C108.355 20.2699 107.963 22.0384 107.179 23.5639C106.395 25.081 105.278 26.2656 103.829 27.1179C102.389 27.9616 100.676 28.3835 98.69 28.3835ZM98.7156 24.1648C99.619 24.1648 100.373 23.9091 100.978 23.3977C101.583 22.8778 102.039 22.1705 102.346 21.2756C102.662 20.3807 102.819 19.3622 102.819 18.2202C102.819 17.0781 102.662 16.0597 102.346 15.1648C102.039 14.2699 101.583 13.5625 100.978 13.0426C100.373 12.5227 99.619 12.2628 98.7156 12.2628C97.8036 12.2628 97.0366 12.5227 96.4144 13.0426C95.8008 13.5625 95.3363 14.2699 95.021 15.1648C94.7141 16.0597 94.5607 17.0781 94.5607 18.2202C94.5607 19.3622 94.7141 20.3807 95.021 21.2756C95.3363 22.1705 95.8008 22.8778 96.4144 23.3977C97.0366 23.9091 97.8036 24.1648 98.7156 24.1648ZM111.896 28V8.36364H117.086V11.8281H117.316C117.725 10.6776 118.407 9.76989 119.362 9.10511C120.316 8.44034 121.458 8.10795 122.788 8.10795C124.135 8.10795 125.281 8.4446 126.227 9.1179C127.173 9.78267 127.804 10.6861 128.119 11.8281H128.324C128.724 10.7031 129.449 9.80398 130.497 9.13068C131.554 8.44886 132.802 8.10795 134.243 8.10795C136.075 8.10795 137.562 8.69176 138.704 9.85938C139.855 11.0185 140.43 12.6634 140.43 14.794V28H134.997V15.8679C134.997 14.777 134.707 13.9588 134.127 13.4134C133.548 12.8679 132.824 12.5952 131.954 12.5952C130.966 12.5952 130.194 12.9105 129.64 13.5412C129.086 14.1634 128.809 14.9858 128.809 16.0085V28H123.529V15.7528C123.529 14.7898 123.252 14.0227 122.699 13.4517C122.153 12.8807 121.433 12.5952 120.538 12.5952C119.933 12.5952 119.387 12.7486 118.902 13.0554C118.424 13.3537 118.045 13.7756 117.764 14.321C117.483 14.858 117.342 15.4886 117.342 16.2131V28H111.896ZM153.681 28.3835C151.661 28.3835 149.922 27.9744 148.465 27.1562C147.016 26.3295 145.9 25.1619 145.115 23.6534C144.331 22.1364 143.939 20.3423 143.939 18.2713C143.939 16.2514 144.331 14.4787 145.115 12.9531C145.9 11.4276 147.003 10.2386 148.426 9.38636C149.858 8.53409 151.537 8.10795 153.463 8.10795C154.759 8.10795 155.965 8.31676 157.081 8.73438C158.206 9.14347 159.186 9.76136 160.022 10.5881C160.865 11.4148 161.522 12.4545 161.99 13.7074C162.459 14.9517 162.694 16.4091 162.694 18.0795V19.5753H146.113V16.2003H157.567C157.567 15.4162 157.397 14.7216 157.056 14.1165C156.715 13.5114 156.242 13.0384 155.637 12.6974C155.04 12.348 154.346 12.1733 153.553 12.1733C152.726 12.1733 151.993 12.3651 151.354 12.7486C150.723 13.1236 150.229 13.6307 149.871 14.2699C149.513 14.9006 149.33 15.6037 149.321 16.3793V19.5881C149.321 20.5597 149.5 21.3991 149.858 22.1065C150.225 22.8139 150.74 23.3594 151.405 23.7429C152.07 24.1264 152.858 24.3182 153.77 24.3182C154.375 24.3182 154.929 24.233 155.432 24.0625C155.935 23.892 156.365 23.6364 156.723 23.2955C157.081 22.9545 157.354 22.5369 157.542 22.0426L162.578 22.375C162.323 23.5852 161.799 24.642 161.006 25.5455C160.222 26.4403 159.208 27.1392 157.963 27.642C156.728 28.1364 155.3 28.3835 153.681 28.3835ZM172.167 24.4205L172.026 25.8267C171.915 26.9517 171.702 28.0724 171.387 29.1889C171.08 30.3139 170.756 31.3324 170.415 32.2443C170.083 33.1563 169.814 33.8722 169.61 34.392H166.081C166.209 33.8892 166.384 33.1861 166.605 32.2827C166.827 31.3878 167.036 30.3821 167.232 29.2656C167.428 28.1491 167.551 27.0114 167.603 25.8523L167.667 24.4205H172.167ZM194.692 8.36364V12.4545H182.867V8.36364H194.692ZM185.551 3.65909H190.998V21.9659C190.998 22.4687 191.074 22.8608 191.228 23.142C191.381 23.4148 191.594 23.6065 191.867 23.7173C192.148 23.8281 192.472 23.8835 192.838 23.8835C193.094 23.8835 193.35 23.8622 193.605 23.8196C193.861 23.7685 194.057 23.7301 194.194 23.7045L195.05 27.7571C194.777 27.8423 194.394 27.9403 193.9 28.0511C193.405 28.1705 192.804 28.2429 192.097 28.2685C190.784 28.3196 189.634 28.1449 188.645 27.7443C187.665 27.3437 186.902 26.7216 186.357 25.8778C185.811 25.0341 185.543 23.9687 185.551 22.6818V3.65909ZM206.901 28.3835C204.915 28.3835 203.198 27.9616 201.749 27.1179C200.309 26.2656 199.196 25.081 198.412 23.5639C197.628 22.0384 197.236 20.2699 197.236 18.2585C197.236 16.2301 197.628 14.4574 198.412 12.9403C199.196 11.4148 200.309 10.2301 201.749 9.38636C203.198 8.53409 204.915 8.10795 206.901 8.10795C208.887 8.10795 210.6 8.53409 212.04 9.38636C213.489 10.2301 214.605 11.4148 215.39 12.9403C216.174 14.4574 216.566 16.2301 216.566 18.2585C216.566 20.2699 216.174 22.0384 215.39 23.5639C214.605 25.081 213.489 26.2656 212.04 27.1179C210.6 27.9616 208.887 28.3835 206.901 28.3835ZM206.926 24.1648C207.83 24.1648 208.584 23.9091 209.189 23.3977C209.794 22.8778 210.25 22.1705 210.557 21.2756C210.873 20.3807 211.03 19.3622 211.03 18.2202C211.03 17.0781 210.873 16.0597 210.557 15.1648C210.25 14.2699 209.794 13.5625 209.189 13.0426C208.584 12.5227 207.83 12.2628 206.926 12.2628C206.015 12.2628 205.248 12.5227 204.625 13.0426C204.012 13.5625 203.547 14.2699 203.232 15.1648C202.925 16.0597 202.772 17.0781 202.772 18.2202C202.772 19.3622 202.925 20.3807 203.232 21.2756C203.547 22.1705 204.012 22.8778 204.625 23.3977C205.248 23.9091 206.015 24.1648 206.926 24.1648ZM234.077 1.81818V28H228.541V1.81818H234.077ZM238.631 28V1.81818H244.077V11.6619H244.243C244.482 11.1335 244.827 10.5966 245.279 10.0511C245.739 9.49716 246.336 9.03693 247.069 8.67045C247.81 8.29545 248.73 8.10795 249.83 8.10795C251.262 8.10795 252.583 8.48295 253.793 9.23295C255.003 9.97443 255.971 11.0952 256.695 12.5952C257.419 14.0866 257.782 15.9574 257.782 18.2074C257.782 20.3977 257.428 22.2472 256.721 23.7557C256.022 25.2557 255.067 26.3935 253.857 27.169C252.655 27.9361 251.309 28.3196 249.817 28.3196C248.76 28.3196 247.861 28.1449 247.12 27.7955C246.387 27.446 245.786 27.0071 245.317 26.4787C244.848 25.9418 244.49 25.4006 244.243 24.8551H244V28H238.631ZM243.962 18.1818C243.962 19.3494 244.124 20.3679 244.448 21.2372C244.772 22.1065 245.24 22.7841 245.854 23.2699C246.468 23.7472 247.213 23.9858 248.091 23.9858C248.978 23.9858 249.728 23.7429 250.341 23.2571C250.955 22.7628 251.419 22.081 251.735 21.2116C252.059 20.3338 252.221 19.3239 252.221 18.1818C252.221 17.0483 252.063 16.0511 251.748 15.1903C251.432 14.3295 250.968 13.6562 250.354 13.1705C249.74 12.6847 248.986 12.4418 248.091 12.4418C247.205 12.4418 246.455 12.6761 245.841 13.1449C245.236 13.6136 244.772 14.2784 244.448 15.1392C244.124 16 243.962 17.0142 243.962 18.1818ZM270.364 28.3835C268.344 28.3835 266.606 27.9744 265.148 27.1562C263.7 26.3295 262.583 25.1619 261.799 23.6534C261.015 22.1364 260.623 20.3423 260.623 18.2713C260.623 16.2514 261.015 14.4787 261.799 12.9531C262.583 11.4276 263.687 10.2386 265.11 9.38636C266.542 8.53409 268.221 8.10795 270.147 8.10795C271.442 8.10795 272.648 8.31676 273.765 8.73438C274.89 9.14347 275.87 9.76136 276.705 10.5881C277.549 11.4148 278.205 12.4545 278.674 13.7074C279.143 14.9517 279.377 16.4091 279.377 18.0795V19.5753H262.796V16.2003H274.251C274.251 15.4162 274.08 14.7216 273.739 14.1165C273.398 13.5114 272.925 13.0384 272.32 12.6974C271.724 12.348 271.029 12.1733 270.237 12.1733C269.41 12.1733 268.677 12.3651 268.038 12.7486C267.407 13.1236 266.913 13.6307 266.555 14.2699C266.197 14.9006 266.013 15.6037 266.005 16.3793V19.5881C266.005 20.5597 266.184 21.3991 266.542 22.1065C266.908 22.8139 267.424 23.3594 268.089 23.7429C268.754 24.1264 269.542 24.3182 270.454 24.3182C271.059 24.3182 271.613 24.233 272.116 24.0625C272.619 23.892 273.049 23.6364 273.407 23.2955C273.765 22.9545 274.038 22.5369 274.225 22.0426L279.262 22.375C279.006 23.5852 278.482 24.642 277.69 25.5455C276.906 26.4403 275.891 27.1392 274.647 27.642C273.411 28.1364 271.984 28.3835 270.364 28.3835ZM282.931 28V8.36364H288.211V11.7898H288.415C288.773 10.571 289.374 9.65057 290.218 9.02841C291.062 8.39773 292.033 8.08239 293.133 8.08239C293.406 8.08239 293.7 8.09943 294.015 8.13352C294.33 8.16761 294.607 8.21449 294.846 8.27415V13.1065C294.59 13.0298 294.237 12.9616 293.785 12.902C293.333 12.8423 292.92 12.8125 292.545 12.8125C291.744 12.8125 291.028 12.9872 290.397 13.3366C289.775 13.6776 289.281 14.1548 288.914 14.7685C288.556 15.3821 288.377 16.0895 288.377 16.8906V28H282.931ZM297.662 28V8.36364H303.108V28H297.662ZM300.397 5.83239C299.588 5.83239 298.893 5.56392 298.314 5.02699C297.743 4.48153 297.457 3.82954 297.457 3.07102C297.457 2.32102 297.743 1.67756 298.314 1.14062C298.893 0.59517 299.588 0.322442 300.397 0.322442C301.207 0.322442 301.897 0.59517 302.468 1.14062C303.048 1.67756 303.338 2.32102 303.338 3.07102C303.338 3.82954 303.048 4.48153 302.468 5.02699C301.897 5.56392 301.207 5.83239 300.397 5.83239ZM313.07 28.3707C311.817 28.3707 310.7 28.1534 309.72 27.7188C308.74 27.2756 307.964 26.6236 307.393 25.7628C306.831 24.8935 306.55 23.8111 306.55 22.5156C306.55 21.4247 306.75 20.5085 307.151 19.767C307.551 19.0256 308.097 18.429 308.787 17.9773C309.477 17.5256 310.261 17.1847 311.139 16.9545C312.026 16.7244 312.955 16.5625 313.926 16.4688C315.068 16.3494 315.989 16.2386 316.688 16.1364C317.386 16.0256 317.893 15.8636 318.209 15.6506C318.524 15.4375 318.682 15.1222 318.682 14.7045V14.6278C318.682 13.8182 318.426 13.1918 317.915 12.7486C317.412 12.3054 316.696 12.0838 315.767 12.0838C314.787 12.0838 314.007 12.3011 313.428 12.7358C312.848 13.1619 312.464 13.6989 312.277 14.3466L307.24 13.9375C307.496 12.7443 307.999 11.7131 308.749 10.8438C309.499 9.96591 310.466 9.29261 311.651 8.82386C312.844 8.34659 314.224 8.10795 315.793 8.10795C316.884 8.10795 317.928 8.2358 318.925 8.49148C319.93 8.74716 320.821 9.14347 321.597 9.6804C322.381 10.2173 322.999 10.9077 323.45 11.7514C323.902 12.5866 324.128 13.5881 324.128 14.7557V28H318.963V25.277H318.81C318.494 25.8906 318.072 26.4318 317.544 26.9006C317.016 27.3608 316.381 27.723 315.639 27.9872C314.898 28.2429 314.041 28.3707 313.07 28.3707ZM314.629 24.6122C315.43 24.6122 316.138 24.4545 316.751 24.1392C317.365 23.8153 317.847 23.3807 318.196 22.8352C318.545 22.2898 318.72 21.6719 318.72 20.9815V18.8977C318.55 19.0085 318.315 19.1108 318.017 19.2045C317.727 19.2898 317.399 19.3707 317.033 19.4474C316.666 19.5156 316.3 19.5795 315.933 19.6392C315.567 19.6903 315.234 19.7372 314.936 19.7798C314.297 19.8736 313.739 20.0227 313.261 20.2273C312.784 20.4318 312.413 20.7088 312.149 21.0582C311.885 21.3991 311.753 21.8253 311.753 22.3366C311.753 23.0781 312.021 23.6449 312.558 24.0369C313.104 24.4205 313.794 24.6122 314.629 24.6122ZM341.3 28H335.368L344.407 1.81818H351.54L360.566 28H354.634L348.076 7.80114H347.871L341.3 28ZM340.929 17.7088H354.941V22.0298H340.929V17.7088ZM369.061 1.81818V28H363.615V1.81818H369.061ZM378.869 1.81818V28H373.423V1.81818H378.869ZM383.232 28V8.36364H388.678V28H383.232ZM385.968 5.83239C385.158 5.83239 384.463 5.56392 383.884 5.02699C383.313 4.48153 383.027 3.82954 383.027 3.07102C383.027 2.32102 383.313 1.67756 383.884 1.14062C384.463 0.59517 385.158 0.322442 385.968 0.322442C386.777 0.322442 387.468 0.59517 388.039 1.14062C388.618 1.67756 388.908 2.32102 388.908 3.07102C388.908 3.82954 388.618 4.48153 388.039 5.02699C387.468 5.56392 386.777 5.83239 385.968 5.83239ZM398.64 28.3707C397.387 28.3707 396.271 28.1534 395.29 27.7188C394.31 27.2756 393.535 26.6236 392.964 25.7628C392.401 24.8935 392.12 23.8111 392.12 22.5156C392.12 21.4247 392.32 20.5085 392.721 19.767C393.121 19.0256 393.667 18.429 394.357 17.9773C395.048 17.5256 395.832 17.1847 396.71 16.9545C397.596 16.7244 398.525 16.5625 399.496 16.4688C400.638 16.3494 401.559 16.2386 402.258 16.1364C402.957 16.0256 403.464 15.8636 403.779 15.6506C404.094 15.4375 404.252 15.1222 404.252 14.7045V14.6278C404.252 13.8182 403.996 13.1918 403.485 12.7486C402.982 12.3054 402.266 12.0838 401.337 12.0838C400.357 12.0838 399.577 12.3011 398.998 12.7358C398.418 13.1619 398.035 13.6989 397.847 14.3466L392.81 13.9375C393.066 12.7443 393.569 11.7131 394.319 10.8438C395.069 9.96591 396.036 9.29261 397.221 8.82386C398.414 8.34659 399.795 8.10795 401.363 8.10795C402.454 8.10795 403.498 8.2358 404.495 8.49148C405.501 8.74716 406.391 9.14347 407.167 9.6804C407.951 10.2173 408.569 10.9077 409.021 11.7514C409.472 12.5866 409.698 13.5881 409.698 14.7557V28H404.533V25.277H404.38C404.065 25.8906 403.643 26.4318 403.114 26.9006C402.586 27.3608 401.951 27.723 401.21 27.9872C400.468 28.2429 399.612 28.3707 398.64 28.3707ZM400.2 24.6122C401.001 24.6122 401.708 24.4545 402.322 24.1392C402.935 23.8153 403.417 23.3807 403.766 22.8352C404.116 22.2898 404.29 21.6719 404.29 20.9815V18.8977C404.12 19.0085 403.886 19.1108 403.587 19.2045C403.298 19.2898 402.969 19.3707 402.603 19.4474C402.237 19.5156 401.87 19.5795 401.504 19.6392C401.137 19.6903 400.805 19.7372 400.506 19.7798C399.867 19.8736 399.309 20.0227 398.832 20.2273C398.354 20.4318 397.984 20.7088 397.719 21.0582C397.455 21.3991 397.323 21.8253 397.323 22.3366C397.323 23.0781 397.592 23.6449 398.129 24.0369C398.674 24.4205 399.364 24.6122 400.2 24.6122ZM419.369 16.6477V28H413.923V8.36364H419.114V11.8281H419.344C419.778 10.6861 420.507 9.78267 421.53 9.1179C422.553 8.4446 423.793 8.10795 425.25 8.10795C426.614 8.10795 427.803 8.40625 428.817 9.00284C429.831 9.59943 430.619 10.4517 431.182 11.5597C431.744 12.6591 432.026 13.9716 432.026 15.4972V28H426.58V16.4688C426.588 15.267 426.281 14.3295 425.659 13.6562C425.037 12.9744 424.18 12.6335 423.089 12.6335C422.357 12.6335 421.709 12.7912 421.146 13.1065C420.592 13.4219 420.158 13.8821 419.842 14.4872C419.536 15.0838 419.378 15.804 419.369 16.6477ZM445.19 28.3835C443.179 28.3835 441.449 27.9574 440 27.1051C438.559 26.2443 437.451 25.0511 436.676 23.5256C435.909 22 435.525 20.2443 435.525 18.2585C435.525 16.2472 435.913 14.483 436.689 12.9659C437.473 11.4403 438.585 10.2514 440.025 9.39915C441.466 8.53835 443.179 8.10795 445.164 8.10795C446.877 8.10795 448.377 8.41903 449.664 9.04119C450.951 9.66335 451.97 10.5369 452.72 11.6619C453.47 12.7869 453.883 14.108 453.96 15.625H448.821C448.676 14.6449 448.292 13.8565 447.67 13.2599C447.056 12.6548 446.251 12.3523 445.254 12.3523C444.41 12.3523 443.673 12.5824 443.042 13.0426C442.42 13.4943 441.934 14.1548 441.585 15.0241C441.235 15.8935 441.061 16.946 441.061 18.1818C441.061 19.4347 441.231 20.5 441.572 21.3778C441.922 22.2557 442.412 22.9247 443.042 23.3849C443.673 23.8452 444.41 24.0753 445.254 24.0753C445.876 24.0753 446.434 23.9474 446.929 23.6918C447.431 23.4361 447.845 23.0653 448.169 22.5795C448.501 22.0852 448.718 21.4929 448.821 20.8026H453.96C453.875 22.3026 453.466 23.6236 452.733 24.7656C452.008 25.8991 451.007 26.7855 449.728 27.4247C448.45 28.0639 446.937 28.3835 445.19 28.3835ZM466.396 28.3835C464.376 28.3835 462.637 27.9744 461.18 27.1562C459.731 26.3295 458.614 25.1619 457.83 23.6534C457.046 22.1364 456.654 20.3423 456.654 18.2713C456.654 16.2514 457.046 14.4787 457.83 12.9531C458.614 11.4276 459.718 10.2386 461.141 9.38636C462.573 8.53409 464.252 8.10795 466.178 8.10795C467.474 8.10795 468.68 8.31676 469.796 8.73438C470.921 9.14347 471.901 9.76136 472.737 10.5881C473.58 11.4148 474.237 12.4545 474.705 13.7074C475.174 14.9517 475.408 16.4091 475.408 18.0795V19.5753H458.827V16.2003H470.282C470.282 15.4162 470.112 14.7216 469.771 14.1165C469.43 13.5114 468.957 13.0384 468.352 12.6974C467.755 12.348 467.06 12.1733 466.268 12.1733C465.441 12.1733 464.708 12.3651 464.069 12.7486C463.438 13.1236 462.944 13.6307 462.586 14.2699C462.228 14.9006 462.045 15.6037 462.036 16.3793V19.5881C462.036 20.5597 462.215 21.3991 462.573 22.1065C462.94 22.8139 463.455 23.3594 464.12 23.7429C464.785 24.1264 465.573 24.3182 466.485 24.3182C467.09 24.3182 467.644 24.233 468.147 24.0625C468.65 23.892 469.08 23.6364 469.438 23.2955C469.796 22.9545 470.069 22.5369 470.256 22.0426L475.293 22.375C475.038 23.5852 474.513 24.642 473.721 25.5455C472.937 26.4403 471.923 27.1392 470.678 27.642C469.442 28.1364 468.015 28.3835 466.396 28.3835Z" fill="white"/>
</svg>
